<mxfile host="65bd71144e">
    <diagram id="hrS6BtfCzpd3rmMiSdAL" name="Page-1">
        <mxGraphModel dx="1386" dy="691" grid="1" gridSize="10" guides="1" tooltips="1" connect="1" arrows="1" fold="1" page="1" pageScale="1" pageWidth="850" pageHeight="1100" math="0" shadow="0">
            <root>
                <mxCell id="0"/>
                <mxCell id="1" parent="0"/>
                <mxCell id="15" value="" style="html=1;align=center;verticalAlign=top;rounded=1;absoluteArcSize=1;arcSize=20;dashed=1;" parent="1" vertex="1">
                    <mxGeometry x="100" y="80" width="680" height="420" as="geometry"/>
                </mxCell>
                <mxCell id="9" style="edgeStyle=none;html=1;" parent="1" source="2" target="4" edge="1">
                    <mxGeometry relative="1" as="geometry"/>
                </mxCell>
                <mxCell id="2" value="Scraping" style="shape=module;align=left;spacingLeft=20;align=center;verticalAlign=middle;" parent="1" vertex="1">
                    <mxGeometry x="615" y="150" width="100" height="50" as="geometry"/>
                </mxCell>
                <mxCell id="11" style="edgeStyle=none;html=1;entryX=0.5;entryY=0;entryDx=0;entryDy=0;" parent="1" source="3" target="4" edge="1">
                    <mxGeometry relative="1" as="geometry"/>
                </mxCell>
                <mxCell id="12" style="edgeStyle=none;html=1;entryX=0.64;entryY=0.04;entryDx=0;entryDy=0;entryPerimeter=0;" parent="1" source="3" target="8" edge="1">
                    <mxGeometry relative="1" as="geometry"/>
                </mxCell>
                <mxCell id="3" value="Servicio Api" style="shape=module;align=left;spacingLeft=20;align=center;verticalAlign=middle;" parent="1" vertex="1">
                    <mxGeometry x="400" y="150" width="100" height="50" as="geometry"/>
                </mxCell>
                <mxCell id="4" value="Base de datos" style="shape=module;align=left;spacingLeft=20;align=center;verticalAlign=middle;" parent="1" vertex="1">
                    <mxGeometry x="515" y="350" width="100" height="50" as="geometry"/>
                </mxCell>
                <mxCell id="13" style="edgeStyle=none;html=1;entryX=0;entryY=0.5;entryDx=0;entryDy=0;entryPerimeter=0;" parent="1" source="6" target="3" edge="1">
                    <mxGeometry relative="1" as="geometry"/>
                </mxCell>
                <mxCell id="14" style="edgeStyle=none;html=1;" parent="1" source="6" target="8" edge="1">
                    <mxGeometry relative="1" as="geometry"/>
                </mxCell>
                <mxCell id="6" value="Carrito" style="shape=module;align=left;spacingLeft=20;align=center;verticalAlign=middle;" parent="1" vertex="1">
                    <mxGeometry x="170" y="150" width="100" height="50" as="geometry"/>
                </mxCell>
                <mxCell id="8" value="Cache" style="shape=module;align=left;spacingLeft=20;align=center;verticalAlign=middle;" parent="1" vertex="1">
                    <mxGeometry x="270" y="350" width="100" height="50" as="geometry"/>
                </mxCell>
                <mxCell id="17" style="edgeStyle=none;html=1;" parent="1" source="16" target="15" edge="1">
                    <mxGeometry relative="1" as="geometry"/>
                </mxCell>
                <mxCell id="16" value="Api Dollar" style="shape=module;align=left;spacingLeft=20;align=center;verticalAlign=middle;" parent="1" vertex="1">
                    <mxGeometry x="850" y="250" width="100" height="50" as="geometry"/>
                </mxCell>
            </root>
        </mxGraphModel>
    </diagram>
</mxfile>